<?xml version="1.0" encoding="UTF-8" standalone="no"?>
<svg
   viewBox="0 0 576 512"
   version="1.1"
   id="svg4"
   sodipodi:docname="cart-shopping-solid.svg"
   inkscape:version="1.1.1 (3bf5ae0d25, 2021-09-20)"
   xmlns:inkscape="http://www.inkscape.org/namespaces/inkscape"
   xmlns:sodipodi="http://sodipodi.sourceforge.net/DTD/sodipodi-0.dtd"
   xmlns="http://www.w3.org/2000/svg"
   xmlns:svg="http://www.w3.org/2000/svg">
  <defs
     id="defs8" />
  <sodipodi:namedview
     id="namedview6"
     pagecolor="#ffffff"
     bordercolor="#666666"
     borderopacity="1.0"
     inkscape:pageshadow="2"
     inkscape:pageopacity="0.0"
     inkscape:pagecheckerboard="0"
     showgrid="false"
     inkscape:zoom="1.5"
     inkscape:cx="255"
     inkscape:cy="363"
     inkscape:window-width="1280"
     inkscape:window-height="953"
     inkscape:window-x="-8"
     inkscape:window-y="-8"
     inkscape:window-maximized="1"
     inkscape:current-layer="svg4" />
  <!--! Font Awesome Pro 6.1.1 by @fontawesome - https://fontawesome.com License - https://fontawesome.com/license (Commercial License) Copyright 2022 Fonticons, Inc. -->
  <path
     d="M96 0C107.5 0 117.4 8.19 119.6 19.51L121.1 32H541.8C562.1 32 578.3 52.25 572.6 72.66L518.6 264.7C514.7 278.5 502.1 288 487.8 288H170.7L179.9 336H488C501.3 336 512 346.7 512 360C512 373.3 501.3 384 488 384H159.1C148.5 384 138.6 375.8 136.4 364.5L76.14 48H24C10.75 48 0 37.25 0 24C0 10.75 10.75 0 24 0H96zM128 464C128 437.5 149.5 416 176 416C202.5 416 224 437.5 224 464C224 490.5 202.5 512 176 512C149.5 512 128 490.5 128 464zM512 464C512 490.5 490.5 512 464 512C437.5 512 416 490.5 416 464C416 437.5 437.5 416 464 416C490.5 416 512 437.5 512 464z"
     id="path2" />
  <path
     style="fill:#ffffff;stroke-width:0.666667"
     d="m 152.61281,382.4522 c -6.24206,-2.15785 -12.36106,-7.94305 -14.55526,-13.76129 C 137.4994,367.21091 123.51656,294.9 106.98456,208 90.452567,121.1 76.772733,49.475 76.584933,48.833333 76.26686,47.746541 74.356467,47.666667 48.681138,47.666667 c -25.222993,0 -27.908366,-0.107694 -31.63917,-1.268851 C 7.487264,43.424058 0.33333333,33.834261 0.33333333,24 c 0,-9.834261 7.15393067,-19.424058 16.70863467,-22.3978162 3.811376,-1.18623367 6.607735,-1.26885047 42.947205,-1.26885047 37.629594,0 39.015367,0.0447827 43.412477,1.40291217 3.91254,1.2084585 5.16009,2.020898 9.00065,5.8614558 3.78127,3.7812737 4.65877,5.1125217 5.77667,8.7637547 0.72497,2.367866 1.52462,6.405211 1.77702,8.971877 0.25238,2.566667 0.61076,5.191667 0.79638,5.833334 0.32049,1.107938 11.01542,1.167064 212.45922,1.174579 181.72935,0.0068 212.63454,0.144399 215.7008,0.960511 15.47304,4.118302 26.57338,20.144682 24.15227,34.87041 C 572.45,71.91068 519.42842,261.08913 517.3466,266.97154 c -2.38199,6.73056 -8.64456,13.80119 -15.13867,17.09201 -7.55714,3.82949 3.20814,3.60312 -171.348,3.60312 -88.28962,0 -160.5266,0.0919 -160.5266,0.20414 0,0.34404 8.63535,45.36192 9.00706,46.95567 l 0.34824,1.49314 157.15568,0.17353 157.15569,0.17352 3,1.43425 c 8.84695,4.2296 14.66667,12.92341 14.66667,21.90991 0,9.82328 -7.15859,19.41468 -16.70864,22.38698 -3.96297,1.23342 -8.75282,1.26825 -171.51742,1.24709 -157.9369,-0.0205 -167.63286,-0.0882 -170.8278,-1.1927 z"
     id="path862" />
  <path
     style="fill:#ffffff;stroke-width:0.666667"
     d="m 167.71679,510.98557 c -10.42603,-2.20016 -17.47031,-6.03008 -25.0713,-13.63106 -6.62252,-6.62252 -9.7101,-11.6836 -12.41758,-20.35451 -2.23123,-7.14569 -2.23123,-18.85431 0,-26 2.70748,-8.67091 5.79506,-13.73199 12.41758,-20.35451 6.62252,-6.62252 11.6836,-9.7101 20.35451,-12.41758 4.07592,-1.2727 6.47854,-1.56124 13,-1.56124 6.52146,0 8.92408,0.28854 13,1.56124 8.67091,2.70748 13.73199,5.79506 20.35451,12.41758 6.62252,6.62252 9.7101,11.6836 12.41758,20.35451 2.23123,7.14569 2.23123,18.85431 0,26 -2.70748,8.67091 -5.79506,13.73199 -12.41758,20.35451 -6.54906,6.54905 -11.66433,9.6933 -20.02118,12.3066 -5.2799,1.65109 -16.741,2.35332 -21.61654,1.32446 z"
     id="path901" />
  <path
     style="fill:#ffffff;stroke-width:0.666667"
     d="m 455.71679,510.98557 c -10.42603,-2.20016 -17.47031,-6.03008 -25.0713,-13.63106 -6.62252,-6.62252 -9.7101,-11.6836 -12.41758,-20.35451 -2.23123,-7.14569 -2.23123,-18.85431 0,-26 2.70748,-8.67091 5.79506,-13.73199 12.41758,-20.35451 6.62252,-6.62252 11.6836,-9.7101 20.35451,-12.41758 4.07592,-1.2727 6.47854,-1.56124 13,-1.56124 6.52146,0 8.92408,0.28854 13,1.56124 8.67091,2.70748 13.73199,5.79506 20.35451,12.41758 6.62252,6.62252 9.7101,11.6836 12.41758,20.35451 2.23123,7.14569 2.23123,18.85431 0,26 -2.70748,8.67091 -5.79506,13.73199 -12.41758,20.35451 -6.54906,6.54905 -11.66433,9.6933 -20.02118,12.3066 -5.2799,1.65109 -16.741,2.35332 -21.61654,1.32446 z"
     id="path940" />
</svg>
