<?xml version="1.0" encoding="UTF-8" standalone="no"?>
<svg
   viewBox="0 0 448 512"
   version="1.1"
   id="svg4"
   sodipodi:docname="instagram-brands.svg"
   inkscape:version="1.1.1 (3bf5ae0d25, 2021-09-20)"
   xmlns:inkscape="http://www.inkscape.org/namespaces/inkscape"
   xmlns:sodipodi="http://sodipodi.sourceforge.net/DTD/sodipodi-0.dtd"
   xmlns="http://www.w3.org/2000/svg"
   xmlns:svg="http://www.w3.org/2000/svg">
  <defs
     id="defs8" />
  <sodipodi:namedview
     id="namedview6"
     pagecolor="#ffffff"
     bordercolor="#666666"
     borderopacity="1.0"
     inkscape:pageshadow="2"
     inkscape:pageopacity="0.0"
     inkscape:pagecheckerboard="0"
     showgrid="false"
     inkscape:zoom="1.5"
     inkscape:cx="224"
     inkscape:cy="256.33333"
     inkscape:window-width="1280"
     inkscape:window-height="953"
     inkscape:window-x="-8"
     inkscape:window-y="-8"
     inkscape:window-maximized="1"
     inkscape:current-layer="svg4" />
  <!--! Font Awesome Pro 6.1.1 by @fontawesome - https://fontawesome.com License - https://fontawesome.com/license (Commercial License) Copyright 2022 Fonticons, Inc. -->
  <path
     d="M224.1 141c-63.6 0-114.9 51.3-114.9 114.9s51.3 114.9 114.9 114.9S339 319.5 339 255.9 287.7 141 224.1 141zm0 189.6c-41.1 0-74.7-33.5-74.7-74.7s33.5-74.7 74.7-74.7 74.7 33.5 74.7 74.7-33.6 74.7-74.7 74.7zm146.4-194.3c0 14.9-12 26.8-26.8 26.8-14.9 0-26.8-12-26.8-26.8s12-26.8 26.8-26.8 26.8 12 26.8 26.8zm76.1 27.2c-1.7-35.9-9.9-67.7-36.2-93.9-26.2-26.2-58-34.4-93.9-36.2-37-2.1-147.9-2.1-184.9 0-35.8 1.7-67.6 9.9-93.9 36.1s-34.4 58-36.2 93.9c-2.1 37-2.1 147.9 0 184.9 1.7 35.9 9.9 67.7 36.2 93.9s58 34.4 93.9 36.2c37 2.1 147.9 2.1 184.9 0 35.9-1.7 67.7-9.9 93.9-36.2 26.2-26.2 34.4-58 36.2-93.9 2.1-37 2.1-147.8 0-184.8zM398.8 388c-7.8 19.6-22.9 34.7-42.6 42.6-29.5 11.7-99.5 9-132.1 9s-102.7 2.6-132.1-9c-19.6-7.8-34.7-22.9-42.6-42.6-11.7-29.5-9-99.5-9-132.1s-2.6-102.7 9-132.1c7.8-19.6 22.9-34.7 42.6-42.6 29.5-11.7 99.5-9 132.1-9s102.7-2.6 132.1 9c19.6 7.8 34.7 22.9 42.6 42.6 11.7 29.5 9 99.5 9 132.1s2.7 102.7-9 132.1z"
     id="path2" />
  <path
     style="fill:#ffffff;stroke-width:0.666667"
     d="M 156.49603,478.95441 C 127.00207,478.25213 112.70436,476.96313 97.23678,473.61195 81.903533,470.28988 64.970347,462.97172 53,454.49378 45.007121,448.83285 30.602957,434.48311 25.196094,426.79492 12.104338,408.17933 4.7335747,385.24748 2.3340258,355.66667 -0.31766787,322.9775 -0.3057944,189.76333 2.3518222,156 4.5853421,127.62455 11.356105,105.73737 23.493603,87.657064 40.848552,61.804715 65.881813,45.069505 97.666667,38.070969 119.61642,33.23797 132.73981,32.677725 224,32.677725 c 78.15778,0 92.86367,0.359167 111,2.710989 37.72081,4.891431 65.49845,20.142431 86.11044,47.277953 12.45917,16.402386 20.17313,36.863923 23.49957,62.333333 2.32023,17.76515 2.70484,33.53491 2.70721,111 0.003,79.97456 -0.37626,93.99481 -3.04325,112.66667 -4.42102,30.95194 -15.02691,53.63192 -34.09224,72.90392 -21.70451,21.93979 -48.52133,33.03118 -87.18173,36.0582 -23.24015,1.81965 -115.05617,2.55064 -166.50397,1.32562 z m 136.17064,-39.33168 c 25.85448,-0.95158 40.05568,-2.44532 53.40803,-5.61768 24.95189,-5.92828 45.12572,-23.94372 53.77217,-48.01912 3.07154,-8.55248 5.39934,-22.046 7.24309,-41.98593 1.07542,-11.63055 1.57263,-142.3404 0.61624,-162 -1.65071,-33.93201 -4.69,-50.99891 -11.51006,-64.63401 C 390.92895,106.8355 383.41798,97.850049 374.01571,90.831318 357.57265,78.55669 340.01851,74.331991 297,72.296195 276.29352,71.316287 148.28201,71.810889 136,72.918255 122.64879,74.122022 108.33022,76.208379 101.46075,77.950961 82.42322,82.780229 67.254133,93.445843 56.506446,109.55902 45.754032,125.67929 42.002623,143.87135 40.331027,188 c -0.881712,23.27641 -0.422626,139.98255 0.600544,152.66667 2.29861,28.49561 5.015999,41.64464 11.090798,53.66666 9.086972,17.98312 24.318104,31.32016 43.040358,37.688 12.210683,4.15312 38.183123,7.27009 65.270603,7.83316 22.6905,0.47167 117.74414,0.3052 132.33334,-0.23176 z"
     id="path862" />
  <path
     style="fill:#ffffff;stroke-width:0.666667"
     d="m 208,369.28565 c -43.47275,-6.65522 -78.79776,-36.06526 -92.34489,-76.88224 -4.74985,-14.31112 -6.37445,-25.95982 -5.77438,-41.40341 1.14548,-29.48075 12.8511,-55.76286 34.2285,-76.85175 21.31492,-21.02726 49.27936,-32.48521 79.41368,-32.53842 5.60427,-0.01 11.60427,0.1699 13.33334,0.39955 50.6093,6.72172 88.94752,41.90215 99.57838,91.37643 1.38856,6.46212 1.5629,9.00511 1.55032,22.61419 -0.0124,13.44933 -0.2013,16.19343 -1.53728,22.33333 -6.1744,28.37659 -21.07503,51.98733 -43.53087,68.9767 -15.7281,11.89938 -35.55283,19.91428 -55.23265,22.32989 -7.66235,0.94052 -22.37328,0.76495 -29.68415,-0.35427 z m 27.20232,-39.27863 c 19.63348,-2.95937 37.01491,-13.35202 49.07095,-29.34035 4.76072,-6.31353 10.33612,-17.8988 12.51247,-26 1.63027,-6.06848 1.79097,-7.74342 1.79097,-18.66667 0,-10.80597 -0.17116,-12.63508 -1.72016,-18.38251 C 293.11334,223.72851 286.76702,212.59053 277.08617,202.9199 262.77193,188.62076 244.31577,181 224,181 c -38.72349,0 -70.56274,28.98591 -74.5069,67.82979 -4.88559,48.11558 37.66746,88.41859 85.70922,81.17723 z"
     id="path901" />
  <path
     style="fill:#ffffff;stroke-width:0.666667"
     d="m 338.33333,162.08841 c -13.54118,-2.95389 -23.03528,-16.69293 -20.64484,-29.87544 2.59803,-14.32724 16.36654,-24.38182 30.08006,-21.96624 14.56672,2.56588 24.40659,16.16606 21.90445,30.27523 -1.95807,11.04116 -10.58526,19.70527 -21.65984,21.75252 -4.63394,0.85663 -4.92557,0.85102 -9.67983,-0.18607 z"
     id="path940" />
</svg>
