<?xml version="1.0" encoding="UTF-8" standalone="no"?>
<svg
   viewBox="0 0 512 512"
   version="1.1"
   id="svg4"
   sodipodi:docname="magnifying-glass-solid.svg"
   inkscape:version="1.1.1 (3bf5ae0d25, 2021-09-20)"
   xmlns:inkscape="http://www.inkscape.org/namespaces/inkscape"
   xmlns:sodipodi="http://sodipodi.sourceforge.net/DTD/sodipodi-0.dtd"
   xmlns="http://www.w3.org/2000/svg"
   xmlns:svg="http://www.w3.org/2000/svg">
  <defs
     id="defs8" />
  <sodipodi:namedview
     id="namedview6"
     pagecolor="#ffffff"
     bordercolor="#666666"
     borderopacity="1.0"
     inkscape:pageshadow="2"
     inkscape:pageopacity="0.0"
     inkscape:pagecheckerboard="0"
     showgrid="false"
     inkscape:zoom="1.5"
     inkscape:cx="256"
     inkscape:cy="-174.33333"
     inkscape:window-width="1280"
     inkscape:window-height="953"
     inkscape:window-x="-8"
     inkscape:window-y="-8"
     inkscape:window-maximized="1"
     inkscape:current-layer="svg4" />
  <!--! Font Awesome Pro 6.1.1 by @fontawesome - https://fontawesome.com License - https://fontawesome.com/license (Commercial License) Copyright 2022 Fonticons, Inc. -->
  <path
     d="M500.3 443.7l-119.7-119.7c27.22-40.41 40.65-90.9 33.46-144.7C401.8 87.79 326.8 13.32 235.2 1.723C99.01-15.51-15.51 99.01 1.724 235.2c11.6 91.64 86.08 166.7 177.6 178.9c53.8 7.189 104.3-6.236 144.7-33.46l119.7 119.7c15.62 15.62 40.95 15.62 56.57 0C515.9 484.7 515.9 459.3 500.3 443.7zM79.1 208c0-70.58 57.42-128 128-128s128 57.42 128 128c0 70.58-57.42 128-128 128S79.1 278.6 79.1 208z"
     id="path2" />
  <path
     style="fill:#ffffff;stroke-width:0.666667"
     d="m 464,510.89495 c -1.83333,-0.34242 -6.18333,-1.9929 -9.66667,-3.66773 L 448,504.18207 l -62.04667,-61.94956 -62.04666,-61.94956 -6.95334,4.38204 C 292.41302,400.13044 262.5362,410.48374 231,414.45064 c -10.51168,1.32225 -38.17258,1.11498 -49,-0.36717 C 149.01385,409.56804 120.81823,399.07519 94.333333,381.45879 80.427887,372.20959 71.060413,364.35454 58.666667,351.55065 30.74578,322.70581 12.319993,287.88301 4.4040465,249 1.5275205,234.87055 0.73232473,225.99533 0.73055947,208 0.728738,189.43191 1.4593662,181.72407 4.7335799,165.76974 19.339963,94.596907 71.773587,35.171911 140.69527,11.679267 c 61.27898,-20.8875577 127.83822,-12.48465589 180.9714,22.847087 12.04182,8.007405 20.61795,15.086124 32.06909,26.469783 15.92684,15.832976 26.92433,30.33887 37.15177,49.003863 35.15002,64.14853 32.53665,145.04243 -6.70684,207.60254 l -3.93262,6.2692 61.92211,62.06413 c 57.43361,57.56534 62.10133,62.41204 64.39463,66.86381 1.35989,2.63982 3.06412,7.11281 3.78719,9.93997 4.54074,17.75412 -4.31203,36.56541 -20.99134,44.60462 -8.55327,4.12256 -16.40969,5.22252 -25.36066,3.55068 z M 219.7627,335.63493 c 38.42977,-3.88752 72.73643,-24.52211 94.17371,-56.64313 31.01251,-46.46825 27.90989,-108.9775 -7.55711,-152.25499 -5.39515,-6.58327 -16.02575,-16.73876 -22.70905,-21.69412 -42.78737,-31.724897 -101.54916,-33.736563 -145.86156,-4.99346 -45.324903,29.39988 -67.050457,81.81802 -56.04563,135.22363 2.550253,12.3762 8.058327,26.47668 14.8053,37.90104 25.33669,42.90157 73.77477,67.46027 123.19434,62.46103 z"
     id="path5794" />
</svg>
