<?xml version="1.0" encoding="UTF-8" standalone="no"?>
<svg
   viewBox="0 0 512 512"
   version="1.1"
   id="svg4"
   sodipodi:docname="twitter-brands.svg"
   inkscape:version="1.1.1 (3bf5ae0d25, 2021-09-20)"
   xmlns:inkscape="http://www.inkscape.org/namespaces/inkscape"
   xmlns:sodipodi="http://sodipodi.sourceforge.net/DTD/sodipodi-0.dtd"
   xmlns="http://www.w3.org/2000/svg"
   xmlns:svg="http://www.w3.org/2000/svg">
  <defs
     id="defs8" />
  <sodipodi:namedview
     id="namedview6"
     pagecolor="#ffffff"
     bordercolor="#666666"
     borderopacity="1.0"
     inkscape:pageshadow="2"
     inkscape:pageopacity="0.0"
     inkscape:pagecheckerboard="0"
     showgrid="false"
     inkscape:zoom="1.5"
     inkscape:cx="188"
     inkscape:cy="181"
     inkscape:window-width="1280"
     inkscape:window-height="953"
     inkscape:window-x="-8"
     inkscape:window-y="-8"
     inkscape:window-maximized="1"
     inkscape:current-layer="svg4" />
  <!--! Font Awesome Pro 6.1.1 by @fontawesome - https://fontawesome.com License - https://fontawesome.com/license (Commercial License) Copyright 2022 Fonticons, Inc. -->
  <path
     d="M459.37 151.716c.325 4.548.325 9.097.325 13.645 0 138.72-105.583 298.558-298.558 298.558-59.452 0-114.68-17.219-161.137-47.106 8.447.974 16.568 1.299 25.34 1.299 49.055 0 94.213-16.568 130.274-44.832-46.132-.975-84.792-31.188-98.112-72.772 6.498.974 12.995 1.624 19.818 1.624 9.421 0 18.843-1.3 27.614-3.573-48.081-9.747-84.143-51.98-84.143-102.985v-1.299c13.969 7.797 30.214 12.67 47.431 13.319-28.264-18.843-46.781-51.005-46.781-87.391 0-19.492 5.197-37.36 14.294-52.954 51.655 63.675 129.3 105.258 216.365 109.807-1.624-7.797-2.599-15.918-2.599-24.04 0-57.828 46.782-104.934 104.934-104.934 30.213 0 57.502 12.67 76.67 33.137 23.715-4.548 46.456-13.32 66.599-25.34-7.798 24.366-24.366 44.833-46.132 57.827 21.117-2.273 41.584-8.122 60.426-16.243-14.292 20.791-32.161 39.308-52.628 54.253z"
     id="path2" />
  <path
     style="fill:#ffffff;stroke-width:0.666667"
     d="M 141.33333,462.94036 C 95.679867,459.89663 49.746996,445.80116 10.833333,422.8937 6.525,420.35749 2.9999706,418.21887 2.9999347,418.14121 c -3.58e-5,-0.0777 9.2249643,-0.14936 20.5000003,-0.15933 21.956993,-0.0194 28.683133,-0.61873 45.364712,-4.04215 22.405186,-4.59801 45.838443,-13.7835 65.802023,-25.79341 7.302,-4.39282 20.98126,-13.89141 20.99277,-14.57693 0.004,-0.23684 -2.46777,-0.63962 -5.49277,-0.89508 -37.35103,-3.15422 -69.68533,-24.73166 -86.089829,-57.44976 -3.240994,-6.46402 -6.052374,-13.47124 -5.590241,-13.93337 0.155918,-0.15592 2.510217,0.005 5.231777,0.35875 10.632476,1.37998 26.255876,0.64078 36.787163,-1.74054 4.17702,-0.9445 5.55271,-2.24272 2.37655,-2.24272 -2.65704,0 -17.626837,-5.44852 -24.373377,-8.87112 C 51.013085,274.84668 30.789419,248.93041 23.7839,218.66667 22.501473,213.1266 21,201.426 21,196.97244 v -1.88629 l 5.833333,2.6965 c 12.254865,5.6649 30.519988,10.28121 38.595027,9.75447 l 3.124147,-0.20379 -4.942919,-3.6282 C 56.890445,198.77316 46.214781,187.84592 41.214399,180.7822 21.993318,153.62979 16.697202,118.55953 27.115375,87.420098 c 2.231133,-6.66875 7.314457,-17.989025 8.371163,-18.642106 0.366419,-0.226459 2.731847,2.05585 5.256506,5.071799 6.218443,7.428529 23.751823,24.968626 31.923623,31.935859 46.189053,39.38051 102.843843,63.81522 162.666663,70.1567 13.79568,1.4624 17.00186,1.60945 16.98772,0.77916 -0.007,-0.39683 -0.43428,-3.12151 -0.95006,-6.05484 -3.83932,-21.83508 -0.28974,-44.89938 10.00839,-65.03208 9.34675,-18.272767 24.24411,-33.774809 42.12252,-43.832253 39.70866,-22.337989 90.77281,-15.889129 122.92012,15.523505 l 4.47015,4.367989 6.22058,-1.376708 c 18.03769,-3.992009 41.45286,-12.86188 55.15842,-20.89449 C 494.54465,58.090185 496.53612,57 496.69665,57 c 0.53422,0 -2.80902,8.259653 -5.5462,13.702192 -7.10896,14.135263 -21.12654,30.166428 -33.98378,38.865448 C 453.775,111.86239 451,113.82709 451,113.93365 c 0,0.31686 12.58023,-1.50909 18.33333,-2.66098 9.30448,-1.86296 22.37287,-5.60473 31.56649,-9.03819 4.8949,-1.82805 9.00385,-3.219701 9.13099,-3.092557 0.45972,0.45972 -10.22522,13.946797 -17.37477,21.931297 -7.80057,8.71157 -18.03953,18.25726 -27.56042,25.69431 l -5.84511,4.5658 -0.0781,15 c -0.12736,24.45292 -2.72198,44.93214 -8.8305,69.69884 -8.75247,35.48639 -22.95767,67.55844 -43.68673,98.6345 -47.37577,71.02358 -119.73552,115.74331 -204.32183,126.27484 -20.5687,2.56093 -42.0241,3.26398 -61,1.99885 z"
     id="path862" />
</svg>
